<svg xmlns="http://www.w3.org/2000/svg" width="40" height="40" fill="none" viewBox="0 0 184 172">
    <path fill="#8449ff"
          d="M51.365 164.298c-2.805 4.913-9.06 6.641-13.577 3.277-13.496-10.05-24.057-23.703-30.439-39.517a93.43 93.43 0 0 1-3.41-59.798C9.396 48.497 21.2 31.132 37.488 18.898 53.778 6.664 73.628.258 93.915.687s39.854 7.671 55.623 20.584 26.842 30.764 31.475 50.74a93.4 93.4 0 0 1-5.883 59.601c-7.031 15.53-18.148 28.724-32.048 38.193-4.653 3.17-10.831 1.179-13.43-3.849l-29.216-56.513c-1.852-3.583-.124-8.025 1.54-11.7a11.2 11.2 0 0 0 .706-7.152 11.1 11.1 0 0 0-3.778-6.09 10.9 10.9 0 0 0-6.674-2.47 10.9 10.9 0 0 0-6.771 2.186 11.1 11.1 0 0 0-4.026 5.923 11.2 11.2 0 0 0 .409 7.176c1.51 3.743 3.052 8.254 1.053 11.755z"
    />
</svg>
